<svg id="圖層_1" data-name="圖層 1" xmlns="http://www.w3.org/2000/svg" viewBox="0 0 107.72 42.52"><defs><style>.cls-1,.cls-3{fill:none;}.cls-1{stroke:#a4a6a8;stroke-width:0.31px;}.cls-2{fill:#727a7f;}.cls-3{stroke:#fff;stroke-width:0.63px;}</style></defs><path class="cls-1" d="M14.36,27.47h0m0,0a.23.23,0,0,1,0,0A.1.1,0,0,0,14.37,27.51Z"/><path class="cls-2" d="M88.05,7.61a3.26,3.26,0,0,0-3.5-3H6A3.35,3.35,0,0,0,2.81,6.8a13.79,13.79,0,0,0-.07,3.71,3,3,0,0,0,1.12,1.68,4.49,4.49,0,0,0,2.9.71h3a4.94,4.94,0,0,1,3.43,1.35c1.2,1.11,4.08,10.16,4.21,10.53A4.68,4.68,0,0,0,21,27.55c.76.14,4.42.07,5.45.07a5.74,5.74,0,0,0,3.05-.73,4.31,4.31,0,0,0,1.92-2.28c.53-1.48,2.61-7.33,3.13-8.76a4.34,4.34,0,0,1,2.25-2.41,5.54,5.54,0,0,1,2.58-.54c1.94,0,8.85-.14,9.57-.14a4.32,4.32,0,0,1,4.1,3c.14.42,1.73,4.85,2.37,6.65.48,1.32.8,2.89,1.94,3.91a5.17,5.17,0,0,0,3.44,1.3h5.6a5.61,5.61,0,0,0,2.91-.68,4.32,4.32,0,0,0,2-2.33C71.48,24,74,16.51,74.21,16A5,5,0,0,1,77,13.22c1.89-.77,7.69.23,9.48-.8a3,3,0,0,0,1.54-2.68Z"/><path class="cls-3" d="M6,6.61A1.16,1.16,0,0,0,5,7.34a6.51,6.51,0,0,0-.09,1.29,13.43,13.43,0,0,0,.07,1.51,1,1,0,0,0,.37.55c.24.18.6.24,1.46.24h3a7.27,7.27,0,0,1,5,2c.51.46,1.46,1.34,4.62,11l.11.32a2.56,2.56,0,0,0,1.89,1.44c.52.06,3.12.05,4.11,0h.9a3.25,3.25,0,0,0,1.8-.39A2.33,2.33,0,0,0,29.3,24l3.12-8.77a6.5,6.5,0,0,1,3.27-3.52,8,8,0,0,1,3.69-.8L46,10.84,49,10.79a6.45,6.45,0,0,1,6.21,4.37l2.38,6.65.28.83a5.46,5.46,0,0,0,1.12,2.29,2.83,2.83,0,0,0,1.86.72h5.6a3.22,3.22,0,0,0,1.69-.36,2.27,2.27,0,0,0,1.06-1.24l2.93-8.57a7,7,0,0,1,4-4.05A14.81,14.81,0,0,1,81.45,11a17.36,17.36,0,0,0,3.88-.2,1.08,1.08,0,0,0,.5-1V7.61c0-.63-.65-1-1.28-1Z"/><path class="cls-2" d="M19.67,34.91a3.25,3.25,0,0,0,3.5,3h78.52a3.36,3.36,0,0,0,3.22-2.15A13.79,13.79,0,0,0,105,32a3,3,0,0,0-1.12-1.68,4.5,4.5,0,0,0-2.9-.71h-3a4.93,4.93,0,0,1-3.43-1.36c-1.2-1.1-4.08-10.16-4.22-10.52A4.66,4.66,0,0,0,86.72,15c-.76-.14-4.42-.08-5.46-.08a5.69,5.69,0,0,0-3,.73,4.4,4.4,0,0,0-1.93,2.28l-3.12,8.77a4.47,4.47,0,0,1-2.25,2.41,5.7,5.7,0,0,1-2.58.54c-1.94,0-8.84.14-9.57.14a4.33,4.33,0,0,1-4.1-3c-.15-.42-1.73-4.86-2.38-6.65-.47-1.32-.8-2.89-1.94-3.91a5.09,5.09,0,0,0-3.44-1.31H41.32a5.52,5.52,0,0,0-2.91.69,4.22,4.22,0,0,0-2,2.32l-2.92,8.57a5,5,0,0,1-2.82,2.83c-1.89.77-7.7-.24-9.49.79a3,3,0,0,0-1.53,2.68Z"/><path class="cls-3" d="M101.69,35.92a1.17,1.17,0,0,0,1.09-.74,7.78,7.78,0,0,0,.07-1.28c0-.61,0-1.23-.06-1.51a1.15,1.15,0,0,0-.37-.56c-.25-.18-.6-.24-1.46-.24h-3a7.26,7.26,0,0,1-5-1.95c-.52-.47-1.46-1.34-4.63-11l-.11-.31a2.5,2.5,0,0,0-1.89-1.44c-.52-.07-3.12-.05-4.1,0h-.91a3.3,3.3,0,0,0-1.8.39,2.32,2.32,0,0,0-1,1.24l-3.13,8.77A6.5,6.5,0,0,1,72,30.8a8,8,0,0,1-3.68.79l-6.64.1-2.93,0a6.47,6.47,0,0,1-6.22-4.36s-2.38-6.66-2.38-6.66l-.27-.82a5.64,5.64,0,0,0-1.12-2.29,2.79,2.79,0,0,0-1.87-.72H41.32a3.39,3.39,0,0,0-1.7.35,2.3,2.3,0,0,0-1.06,1.25l-2.93,8.57a7,7,0,0,1-4,4,14.63,14.63,0,0,1-5.37.49,17.54,17.54,0,0,0-3.88.19,1.09,1.09,0,0,0-.49,1v2.13c0,.63.65,1,1.28,1Z"/></svg>